{
  "accessors": [
    {
      "bufferView": 2,
      "componentType": 5126,
      "count": 3068,
      "max": [
        0.7770194411277771,
        0.8085646629333496,
        0.05022323131561279
      ],
      "min": [
        -0.3098090887069702,
        -0.13874076306819916,
        -1.020935297012329
      ],
      "type": "VEC3"
    },
    {
      "bufferView": 2,
      "byteOffset": 36816,
      "componentType": 5126,
      "count": 3068,
      "max": [
        1.0,
        1.0,
        1.0
      ],
      "min": [
        -1.0,
        -1.0,
        -1.0
      ],
      "type": "VEC3"
    },
    {
      "bufferView": 1,
      "componentType": 5126,
      "count": 3068,
      "max": [
        1.2248942852020264,
        1.175865888595581
      ],
      "min": [
        -0.002460956573486328,
        0.0
      ],
      "type": "VEC2"
    },
    {
      "bufferView": 1,
      "byteOffset": 24544,
      "componentType": 5126,
      "count": 3068,
      "max": [
        1.2248942852020264,
        1.175865888595581
      ],
      "min": [
        -0.002460956573486328,
        0.0
      ],
      "type": "VEC2"
    },
    {
      "bufferView": 0,
      "componentType": 5125,
      "count": 4632,
      "type": "SCALAR"
    },
    {
      "bufferView": 2,
      "byteOffset": 73632,
      "componentType": 5126,
      "count": 68,
      "max": [
        0.6805648803710938,
        0.2393229901790619,
        -1.0110807418823242
      ],
      "min": [
        -0.17299199104309082,
        0.15723057091236115,
        -1.175477147102356
      ],
      "type": "VEC3"
    },
    {
      "bufferView": 2,
      "byteOffset": 74448,
      "componentType": 5126,
      "count": 68,
      "max": [
        1.0,
        1.0,
        1.0
      ],
      "min": [
        -1.0,
        -8.483096536338053e-08,
        -0.9678053855895996
      ],
      "type": "VEC3"
    },
    {
      "bufferView": 1,
      "byteOffset": 49088,
      "componentType": 5126,
      "count": 68,
      "max": [
        0.5032098293304443,
        0.5347078442573547
      ],
      "min": [
        0.4085957407951355,
        0.4400937557220459
      ],
      "type": "VEC2"
    },
    {
      "bufferView": 1,
      "byteOffset": 49632,
      "componentType": 5126,
      "count": 68,
      "max": [
        0.5032098293304443,
        0.5347078442573547
      ],
      "min": [
        0.4085957407951355,
        0.4400937557220459
      ],
      "type": "VEC2"
    },
    {
      "bufferView": 0,
      "byteOffset": 18528,
      "componentType": 5125,
      "count": 156,
      "type": "SCALAR"
    }
  ],
  "asset": {
    "extras": {
      "author": "ModelMaker (https://sketchfab.com/mireubay1)",
      "license": "CC-BY-4.0 (http://creativecommons.org/licenses/by/4.0/)",
      "source": "https://sketchfab.com/3d-models/game-ready-building-3-6c0613e8b09c49eaa7f3775d9c77cbf6",
      "title": "Game Ready Building 3"
    },
    "generator": "Sketchfab-14.82.0",
    "version": "2.0"
  },
  "bufferViews": [
    {
      "buffer": 0,
      "byteLength": 19152,
      "name": "floatBufferViews",
      "target": 34963
    },
    {
      "buffer": 0,
      "byteLength": 50176,
      "byteOffset": 19152,
      "byteStride": 8,
      "name": "floatBufferViews",
      "target": 34962
    },
    {
      "buffer": 0,
      "byteLength": 75264,
      "byteOffset": 69328,
      "byteStride": 12,
      "name": "floatBufferViews",
      "target": 34962
    }
  ],
  "buffers": [
    {
      "byteLength": 144592,
      "uri": "scene.bin"
    }
  ],
  "extensionsUsed": [
    "KHR_materials_specular"
  ],
  "images": [
    {
      "uri": "textures/atlas.004_baseColor.png"
    },
    {
      "uri": "textures/atlas.004_metallicRoughness.png"
    },
    {
      "uri": "textures/atlas.004_specularf0.png"
    }
  ],
  "materials": [
    {
      "doubleSided": true,
      "extensions": {
        "KHR_materials_specular": {
          "specularColorFactor": [
            1.0,
            1.0,
            1.0
          ],
          "specularFactor": 1.0,
          "specularTexture": {
            "index": 2
          }
        }
      },
      "name": "atlas.004",
      "pbrMetallicRoughness": {
        "baseColorTexture": {
          "index": 0
        },
        "metallicRoughnessTexture": {
          "index": 1
        }
      }
    },
    {
      "doubleSided": true,
      "name": "atlas",
      "pbrMetallicRoughness": {
        "baseColorTexture": {
          "index": 0
        },
        "metallicFactor": 0.0,
        "roughnessFactor": 0.8211145618000169
      }
    }
  ],
  "meshes": [
    {
      "name": "atlas.037_atlas.004_0",
      "primitives": [
        {
          "attributes": {
            "NORMAL": 1,
            "POSITION": 0,
            "TEXCOORD_0": 2,
            "TEXCOORD_1": 3
          },
          "indices": 4,
          "material": 0,
          "mode": 4
        }
      ]
    },
    {
      "name": "atlas.037_atlas_0",
      "primitives": [
        {
          "attributes": {
            "NORMAL": 6,
            "POSITION": 5,
            "TEXCOORD_0": 7,
            "TEXCOORD_1": 8
          },
          "indices": 9,
          "material": 1,
          "mode": 4
        }
      ]
    }
  ],
  "nodes": [
    {
      "children": [
        1
      ],
      "matrix": [
        1.0,
        0.0,
        0.0,
        0.0,
        0.0,
        2.220446049250313e-16,
        -1.0,
        0.0,
        0.0,
        1.0,
        2.220446049250313e-16,
        0.0,
        0.0,
        0.0,
        0.0,
        1.0
      ],
      "name": "Sketchfab_model"
    },
    {
      "children": [
        2
      ],
      "matrix": [
        0.009999999776482582,
        0.0,
        0.0,
        0.0,
        0.0,
        0.0,
        0.009999999776482582,
        0.0,
        0.0,
        -0.009999999776482582,
        0.0,
        0.0,
        0.0,
        0.0,
        0.0,
        1.0
      ],
      "name": "994fde2a7da14f93a340006ee19c60fc.fbx"
    },
    {
      "children": [
        3
      ],
      "name": "RootNode"
    },
    {
      "children": [
        4,
        5
      ],
      "matrix": [
        -9.999999999996248,
        1.2246467991469413e-15,
        8.662515364024167e-06,
        0.0,
        -3.774259576538349e-13,
        9.99999999999999,
        -4.371139196189988e-07,
        0.0,
        -8.662515364024159e-06,
        -4.371139196191617e-07,
        -9.999999999996238,
        0.0,
        86.50358581542969,
        -2.4965529441833496,
        -9.974428176879883,
        1.0
      ],
      "name": "atlas.037"
    },
    {
      "mesh": 0,
      "name": "atlas.037_atlas.004_0"
    },
    {
      "mesh": 1,
      "name": "atlas.037_atlas_0"
    }
  ],
  "samplers": [
    {
      "magFilter": 9729,
      "minFilter": 9987,
      "wrapS": 10497,
      "wrapT": 10497
    }
  ],
  "scene": 0,
  "scenes": [
    {
      "name": "Sketchfab_Scene",
      "nodes": [
        0
      ]
    }
  ],
  "textures": [
    {
      "sampler": 0,
      "source": 0
    },
    {
      "sampler": 0,
      "source": 1
    },
    {
      "sampler": 0,
      "source": 2
    }
  ]
}
